<svg xmlns="http://www.w3.org/2000/svg" width="50.92" height="50.923" viewBox="0 0 50.92 50.923">
  <g id="Path_182" data-name="Path 182" transform="translate(0.512 21.922)" fill="#7ccc2b">
    <path d="M 25.51468658447266 28.50083541870117 C 25.39775657653809 28.50083541870117 25.27211570739746 28.4994945526123 25.13339614868164 28.4980354309082 C 24.95849609375 28.49619483947754 24.76326751708984 28.49414443969727 24.53931617736816 28.49414443969727 C 22.85305976867676 28.49414443969727 21.34270286560059 27.79000663757324 21.24345397949219 27.74278450012207 L 11.11152648925781 22.41679573059082 C 8.393936157226562 20.99270439147949 4.198346614837646 18.76377487182617 3.775916576385498 18.4588451385498 L 3.755376577377319 18.44401550292969 L 3.733446598052979 18.43134498596191 C 2.733846664428711 17.85367584228516 1.329416632652283 16.46602439880371 0.3855665624141693 14.30386543273926 L 0.3801865875720978 14.29154491424561 L 0.3741565644741058 14.2795352935791 C -0.09650342166423798 13.34223461151123 -0.03171342238783836 11.59611511230469 0.03296657651662827 11.0023946762085 L 0.03586657717823982 10.97580528259277 L 0.03590657562017441 10.94906520843506 L 0.06281342357397079 -5.478455066680908 C 0.06743719428777695 -5.592262744903564 0.1756292730569839 -7.790408611297607 1.528736591339111 -9.522234916687012 C 2.933976650238037 -11.3207950592041 5.202236652374268 -12.28394508361816 5.224986553192139 -12.29346466064453 L 5.531976699829102 -12.42192459106445 L 5.532386779785156 -12.75488471984863 L 5.532386779785156 -17.54001808166504 C 5.578679084777832 -17.68716621398926 5.698302268981934 -17.97774124145508 5.882776737213135 -18.12988471984863 C 6.087430953979492 -18.29867553710938 6.4662766456604 -18.37239837646484 6.608861923217773 -18.38867568969727 L 12.34018230438232 -18.38867568969727 C 12.51396942138672 -18.34348678588867 12.90141201019287 -18.21245193481445 13.08821678161621 -18.01538467407227 C 13.28458690643311 -17.80822563171387 13.34428691864014 -17.42279434204102 13.34952640533447 -17.3309154510498 L 13.39413642883301 -16.54842567443848 L 14.08492660522461 -16.91868591308594 L 20.96898651123047 -20.60848045349121 C 21.19396781921387 -20.69689178466797 23.09698295593262 -21.421875 24.96594619750977 -21.421875 C 26.8375072479248 -21.421875 28.7574520111084 -20.69503402709961 28.9814281463623 -20.60763168334961 L 46.04825210571289 -11.58617305755615 C 46.24020767211914 -11.45523262023926 47.87710189819336 -10.31319427490234 48.77833557128906 -8.862165451049805 C 49.41983413696289 -7.82933235168457 49.71078491210938 -6.601526737213135 49.83234405517578 -5.910154819488525 L 47.59223175048828 -5.910154819488525 C 47.48405456542969 -6.448111057281494 47.23705673217773 -7.379517078399658 46.72442626953125 -8.164895057678223 C 45.96935653686523 -9.321715354919434 44.67795562744141 -10.09999465942383 44.62334823608398 -10.13255500793457 L 44.6119384765625 -10.13936519622803 L 44.60018539428711 -10.14554500579834 L 27.83321571350098 -18.97366523742676 L 27.80960655212402 -18.9860954284668 L 27.7848072052002 -18.99594497680664 C 27.72654724121094 -19.01908493041992 26.34222602844238 -19.5624942779541 24.96594619750977 -19.5624942779541 C 23.58390617370605 -19.5624942779541 22.27460670471191 -19.01499557495117 22.21954727172852 -18.99169540405273 L 22.20058631896973 -18.98366546630859 L 22.18234634399414 -18.9741153717041 L 11.16763687133789 -13.20154285430908 L 11.16763687133789 -15.984375 L 11.16763687133789 -16.484375 L 10.66763687133789 -16.484375 L 8.221756935119629 -16.484375 L 7.721756458282471 -16.484375 L 7.721756458282471 -15.984375 L 7.721756458282471 -11.39088153839111 C 7.063352584838867 -11.08495426177979 5.465550422668457 -10.29800224304199 4.229026794433594 -9.32911491394043 C 2.554616689682007 -8.017114639282227 2.251316547393799 -5.647425174713135 2.239226579666138 -5.547184944152832 L 2.236056566238403 -5.520884990692139 L 2.235676527023315 -5.494384765625 C 2.22693657875061 -4.877574920654297 2.029646635055542 9.658564567565918 2.718996524810791 13.72612476348877 L 2.724016666412354 13.75577545166016 L 2.732566595077515 13.78461456298828 C 3.248736619949341 15.52679538726807 4.83371639251709 16.41767501831055 8.662956237792969 18.56999588012695 C 9.249576568603516 18.89972496032715 9.914466857910156 19.27344512939453 10.63152694702148 19.68160438537598 C 15.74624633789062 22.59300422668457 22.71948623657227 25.56880569458008 24.03988647460938 26.06650543212891 C 24.57873725891113 26.26961517333984 25.14450645446777 26.37260437011719 25.72146606445312 26.37260437011719 C 27.10453605651855 26.37260437011719 28.09891700744629 25.78121566772461 28.14056587219238 25.75603485107422 L 28.78575706481934 25.36608505249023 L 28.175537109375 24.92340469360352 C 28.16154670715332 24.91321563720703 26.72662734985352 23.85805511474609 25.66801643371582 22.21371459960938 C 24.68226623535156 20.68255233764648 24.36042976379395 18.64596557617188 24.32249450683594 18.38526344299316 L 24.22682762145996 5.318190574645996 C 24.27776336669922 5.317219257354736 24.33236122131348 5.31664514541626 24.39022636413574 5.31664514541626 C 24.87575721740723 5.31664514541626 25.61942672729492 5.356834888458252 26.40496635437012 5.548285007476807 C 27.76816749572754 5.880515098571777 28.9791259765625 6.701194763183594 28.99119567871094 6.709444999694824 L 29.77075576782227 7.242215156555176 L 29.77366638183594 6.298234939575195 L 29.80673599243164 -5.863146305084229 C 29.82479286193848 -6.006566524505615 30.001220703125 -7.173720836639404 31.02658653259277 -7.972805023193359 C 32.09098052978516 -8.80232048034668 33.63184356689453 -8.911761283874512 33.84181213378906 -8.922939300537109 C 34.06085968017578 -8.903977394104004 35.67547225952148 -8.74059009552002 36.4846076965332 -7.998654842376709 L 36.5515251159668 -7.937335014343262 C 37.49785614013672 -7.07035493850708 37.85194778442383 -6.745954990386963 37.94741821289062 -5.375414848327637 C 38.05565643310547 -3.821515083312988 37.94813537597656 -1.918974995613098 37.94703674316406 -1.899935007095337 L 37.90287780761719 -1.134704947471619 L 38.62100601196289 -1.402644991874695 C 38.62442779541016 -1.403885006904602 39.13074493408203 -1.585934996604919 39.80272674560547 -1.585934996604919 C 40.40117263793945 -1.585934996604919 41.13885116577148 -1.445114731788635 41.36852264404297 -1.398078560829163 C 41.50053787231445 -1.322110176086426 41.80296325683594 -1.145882487297058 42.02793502807617 -0.998104989528656 C 42.30279541015625 -0.8175550103187561 42.46701812744141 -0.6754950284957886 42.46864700317383 -0.6740750074386597 L 42.80006790161133 -0.3860050141811371 L 43.12927627563477 -0.6767950057983398 C 43.13427734375 -0.6811349987983704 43.81218719482422 -1.262784957885742 44.94389724731445 -1.494544982910156 C 45.2156982421875 -1.550204992294312 45.49809646606445 -1.578425049781799 45.78325653076172 -1.578425049781799 C 46.49360656738281 -1.578425049781799 46.99442672729492 -1.402634978294373 46.99940490722656 -1.4008549451828 L 47.66745758056641 -1.16246497631073 L 47.66933822631836 -1.871094942092896 L 47.66933822631836 -4.910154819488525 L 49.90840530395508 -4.910154819488525 L 49.90840530395508 8.167964935302734 L 47.66933822631836 8.167964935302734 L 47.66933822631836 1.813475012779236 L 47.66933822631836 1.737315058708191 L 47.64665603637695 1.664605021476746 C 47.49918746948242 1.191774964332581 46.914794921875 0.29755499958992 45.758544921875 0.29755499958992 C 45.74465560913086 0.29755499958992 45.73077774047852 0.2976849973201752 45.7166862487793 0.2979350090026855 C 44.49837493896484 0.3202250003814697 44.0214958190918 1.314815044403076 43.93955612182617 1.837615013122559 L 43.93352508544922 1.876085042953491 L 43.93352508544922 1.915035009384155 L 43.93352508544922 9.357424736022949 L 41.68202590942383 9.357424736022949 L 41.68202590942383 1.915035009384155 L 41.68202590942383 1.873265027999878 L 41.67509841918945 1.832085013389587 C 41.58575820922852 1.301054954528809 41.09219741821289 0.2967950105667114 39.86366653442383 0.2967950105667114 C 39.83788681030273 0.2967950105667114 39.81197738647461 0.2972350120544434 39.78542709350586 0.2981550097465515 C 38.52288818359375 0.3418650031089783 38.03437805175781 1.323315024375916 37.95246505737305 1.836174964904785 L 37.94629669189453 1.874794960021973 L 37.94620513916016 1.913915038108826 L 37.92661285400391 10.65722465515137 L 35.75388717651367 10.65722465515137 L 35.58698654174805 -5.895665168762207 L 35.58508682250977 -6.084654808044434 L 35.45863723754883 -6.22513484954834 C 35.38652801513672 -6.305244922637939 34.72877502441406 -7.007814884185791 33.85061645507812 -7.007814884185791 C 32.8075065612793 -7.007814884185791 32.29340744018555 -6.259095191955566 32.16068649291992 -6.029624938964844 C 32.07353591918945 -5.878954887390137 32.03746795654297 -5.816585063934326 31.99850654602051 -2.611555099487305 C 31.97864723205566 -0.978285014629364 31.96331596374512 1.277204990386963 31.95294570922852 4.092275142669678 C 31.9386043548584 7.983800888061523 31.93780326843262 11.89284610748291 31.93802452087402 13.25000476837158 L 29.78554153442383 13.25000476837158 C 29.83876037597656 12.41960334777832 29.86038780212402 10.89006900787354 29.41061592102051 9.941954612731934 C 28.77744674682617 8.60721492767334 27.25549697875977 7.915935039520264 27.19101715087891 7.887155055999756 L 26.48437690734863 7.571815013885498 L 26.48725700378418 8.345624923706055 L 26.52660751342773 18.88761520385742 L 26.52700614929199 18.99421501159668 L 26.57085609436035 19.09138488769531 C 26.60211563110352 19.16068458557129 27.35217666625977 20.80839538574219 28.70770645141602 22.54407501220703 C 29.09507751464844 23.04623413085938 29.57907676696777 23.34337425231934 30.13950729370117 23.68744468688965 C 30.31123733520508 23.79287528991699 30.48881721496582 23.90189552307129 30.67814636230469 24.02531433105469 C 31.77812576293945 24.74232864379883 32.95940399169922 25.01367950439453 33.91812515258789 25.0968189239502 C 32.54019546508789 25.89391899108887 30.54642295837402 26.98003005981445 28.92450714111328 27.59498405456543 C 26.69756698608398 28.4393253326416 26.39415740966797 28.50083541870117 25.51468658447266 28.50083541870117 Z" stroke="none"/>
    <path d="M 24.96594619750977 -20.921875 C 23.24350166320801 -20.921875 21.47277641296387 -20.26717567443848 21.17876434326172 -20.15363883972168 L 14.32112503051758 -16.47799491882324 L 12.90169525146484 -15.6915454864502 L 12.85049438476562 -17.29755401611328 C 12.83868789672852 -17.42109870910645 12.78141021728516 -17.61225128173828 12.72532653808594 -17.67141532897949 C 12.6622314453125 -17.73797607421875 12.4589958190918 -17.83376884460449 12.27325820922852 -17.88867568969727 L 6.636512756347656 -17.88867568969727 C 6.511886596679688 -17.87148284912109 6.280002593994141 -17.80937957763672 6.200897216796875 -17.7441349029541 C 6.146484375 -17.69926643371582 6.077053070068359 -17.57112884521484 6.032386779785156 -17.45528602600098 L 6.030708312988281 -12.08993530273438 L 5.418415069580078 -11.83239555358887 C 5.396816253662109 -11.82331466674805 3.243106842041016 -10.90433502197266 1.922737121582031 -9.214395523071289 C 0.6860923767089844 -7.631640434265137 0.5693283081054688 -5.606710433959961 0.5627975463867188 -5.468125343322754 L 0.5358161926269531 11.00337505340576 L 0.5300254821777344 11.05654525756836 C 0.473846435546875 11.572265625 0.4066963195800781 13.23013496398926 0.8209877014160156 14.05515480041504 L 0.8438072204589844 14.10382461547852 C 1.739185333251953 16.15492630004883 3.052818298339844 17.46052551269531 3.983627319335938 17.99843597412109 L 4.026165008544922 18.02284622192383 L 4.067245483398438 18.05249404907227 C 4.462505340576172 18.33004379272461 8.110916137695312 20.27990531921387 11.34416580200195 21.97421455383301 L 21.46756362915039 27.29571914672852 C 21.58865737915039 27.35239410400391 22.9979419708252 27.9941349029541 24.53931617736816 27.9941349029541 C 24.7652473449707 27.9941349029541 24.96222686767578 27.99619483947754 25.13868713378906 27.99805450439453 C 25.27549743652344 27.9994945526123 25.39940643310547 28.00082588195801 25.51472663879395 28.00082588195801 C 26.29654693603516 28.00082588195801 26.51434707641602 27.97405433654785 28.74724578857422 27.12744522094727 C 29.91077995300293 26.6862907409668 31.2736873626709 25.99551963806152 32.45453262329102 25.34813690185547 C 31.7850284576416 25.16924095153809 31.08172988891602 24.88523483276367 30.40511703491211 24.44418525695801 C 30.2214469909668 24.32446479797363 30.04679679870605 24.21724510192871 29.87790679931641 24.11354446411133 C 29.30134201049805 23.75958061218262 28.75670433044434 23.42520523071289 28.3117733001709 22.84944915771484 C 26.92081642150879 21.06779098510742 26.14736366271973 19.36853408813477 26.11509704589844 19.29703521728516 L 26.02740669250488 19.10268402099609 L 25.98148727416992 6.799845218658447 L 27.3947868347168 7.430554866790771 C 27.57368659973145 7.510395050048828 29.16288566589355 8.253154754638672 29.86235618591309 9.727644920349121 C 30.26973915100098 10.58640766143799 30.32940483093262 11.84239387512207 30.3071460723877 12.74999523162842 L 31.43800163269043 12.74999523162842 C 31.43811416625977 11.08424091339111 31.44008827209473 7.580299377441406 31.45294570922852 4.09042501449585 C 31.46332740783691 1.27395486831665 31.47866630554199 -0.9829654693603516 31.4985466003418 -2.617634773254395 C 31.53909683227539 -5.953584671020508 31.56424713134766 -5.997064590454102 31.72786712646484 -6.27995491027832 C 31.89445686340332 -6.567995071411133 32.53988647460938 -7.507815361022949 33.85061645507812 -7.507815361022949 C 34.94518661499023 -7.507815361022949 35.74290466308594 -6.656695365905762 35.83026885986328 -6.55964469909668 L 36.08315658569336 -6.278695106506348 L 36.24887466430664 10.15722465515137 L 37.427734375 10.15722465515137 L 37.44638824462891 1.834565162658691 L 37.45872497558594 1.757315158843994 C 37.56309509277344 1.103825092315674 38.18009567260742 -0.1465749740600586 39.76792526245117 -0.2015352249145508 C 39.8004150390625 -0.2026748657226562 39.83211517333984 -0.2032051086425781 39.86366653442383 -0.2032051086425781 C 41.42670440673828 -0.2032051086425781 42.05455780029297 1.073854923248291 42.16815567016602 1.749125003814697 L 42.18201446533203 1.831504821777344 L 42.18201446533203 8.857424736022949 L 43.43352508544922 8.857424736022949 L 43.43352508544922 1.83714485168457 L 43.44558715820312 1.760184764862061 C 43.55001831054688 1.093924999237061 44.15715789794922 -0.1736149787902832 45.70767593383789 -0.2019848823547363 C 45.72479629516602 -0.2022948265075684 45.74167633056641 -0.2024450302124023 45.758544921875 -0.2024450302124023 C 47.20572662353516 -0.2024450302124023 47.93863677978516 0.921454906463623 48.12398529052734 1.515735149383545 L 48.16933822631836 1.661155223846436 L 48.16933822631836 7.667964935302734 L 49.40840530395508 7.667964935302734 L 49.40840530395508 -4.410155296325684 L 48.16933822631836 -4.410155296325684 L 48.16933822631836 -1.871094703674316 L 48.18463516235352 -0.4095349311828613 L 46.82960891723633 -0.9304952621459961 C 46.78597259521484 -0.9449281692504883 46.36618041992188 -1.078444480895996 45.78328704833984 -1.078425407409668 C 45.53167724609375 -1.078414916992188 45.28301620483398 -1.053614616394043 45.04419708251953 -1.004705429077148 C 44.09785461425781 -0.8109045028686523 43.51153945922852 -0.343843936920166 43.45799255371094 -0.2998661994934082 L 42.81764602661133 0.2965049743652344 L 42.14143753051758 -0.2960147857666016 C 42.14000701904297 -0.2972450256347656 41.99548721313477 -0.4212050437927246 41.75342559814453 -0.580204963684082 C 41.57223510742188 -0.6992273330688477 41.33536529541016 -0.8392925262451172 41.18951416015625 -0.9240245819091797 C 40.91609573364258 -0.9775400161743164 40.30077362060547 -1.085934638977051 39.80272674560547 -1.085934638977051 C 39.25602340698242 -1.085934638977051 38.83537292480469 -0.9475269317626953 38.79262542724609 -0.9329509735107422 L 37.35830688476562 -0.3737049102783203 L 37.44786834716797 -1.928714752197266 C 37.44894790649414 -1.947444915771484 37.55454635620117 -3.819945335388184 37.44862747192383 -5.340664863586426 C 37.36702728271484 -6.512104988098145 37.12272644042969 -6.73592472076416 36.21376800537109 -7.56866455078125 L 36.14669799804688 -7.630125045776367 C 35.56460571289062 -8.163869857788086 34.30521774291992 -8.379312515258789 33.83633041381836 -8.421775817871094 C 33.57282257080078 -8.404650688171387 32.24011993408203 -8.284643173217773 31.33393669128418 -7.578425407409668 C 30.50517463684082 -6.932553291320801 30.33384323120117 -6.018512725830078 30.30664825439453 -5.829915046691895 L 30.26851654052734 8.191824913024902 L 28.70804595947266 7.12154483795166 C 28.69680595397949 7.113824844360352 27.54798698425293 6.341495037078857 26.28657722473145 6.034054756164551 C 25.71359634399414 5.894413471221924 25.16265869140625 5.840509414672852 24.73053359985352 5.823419094085693 L 24.82221794128418 18.34646224975586 C 24.87394142150879 18.68531227111816 25.19095993041992 20.54901695251465 26.08842658996582 21.94306564331055 C 27.09218597412109 23.50220489501953 28.45699691772461 24.50979423522949 28.46913719177246 24.51868438720703 L 29.68957710266113 25.40404510498047 L 28.39919662475586 26.1839542388916 C 28.28257751464844 26.25443458557129 27.21663665771484 26.87260437011719 25.72146606445312 26.87260437011719 C 25.08407592773438 26.87260437011719 24.45897674560547 26.75880432128906 23.86352729797363 26.53436470031738 C 22.53556632995605 26.03380584716797 15.52391815185547 23.04177474975586 10.38418579101562 20.11613464355469 C 9.668296813964844 19.7086353302002 9.004035949707031 19.33527374267578 8.417964935302734 19.00585556030273 C 4.463676452636719 16.78325462341309 2.826934814453125 15.86328506469727 2.253166198730469 13.92664527893066 L 2.236076354980469 13.86897468566895 L 2.226028442382812 13.80966567993164 C 1.529136657714844 9.697625160217285 1.726966857910156 -4.882795333862305 1.735725402832031 -5.50146484375 L 1.736476898193359 -5.554454803466797 L 1.742828369140625 -5.607074737548828 C 1.755928039550781 -5.715715408325195 2.084896087646484 -8.284275054931641 3.920646667480469 -9.722684860229492 C 5.038703918457031 -10.59874725341797 6.437599182128906 -11.32835578918457 7.221755981445312 -11.70703315734863 L 7.221755981445312 -16.984375 L 11.66763687133789 -16.984375 L 11.66763687133789 -14.02808570861816 L 21.98671722412109 -19.43610572814941 L 22.02463722229004 -19.4521541595459 C 22.08351707458496 -19.47707557678223 23.48359680175781 -20.0625057220459 24.96594619750977 -20.0625057220459 C 26.43677711486816 -20.0625057220459 27.90744590759277 -19.4852352142334 27.96933746337891 -19.46066474914551 L 28.01893615722656 -19.44096565246582 L 44.87944793701172 -10.56198501586914 C 44.93811798095703 -10.52700424194336 46.32552719116211 -9.6907958984375 47.14311599731445 -8.43819522857666 C 47.58897018432617 -7.755121231079102 47.84759140014648 -6.987874984741211 47.99298095703125 -6.410155296325684 L 49.21874237060547 -6.410155296325684 C 49.06530380249023 -7.053312301635742 48.79995346069336 -7.87971019744873 48.35359573364258 -8.598355293273926 C 47.53229141235352 -9.920692443847656 46.03787612915039 -10.98573112487793 45.78933334350586 -11.1574649810791 L 28.77351379394531 -20.15197563171387 C 28.47862434387207 -20.26509857177734 26.69152069091797 -20.921875 24.96594619750977 -20.921875 M 24.96594619750977 -21.921875 C 27.07424736022949 -21.921875 29.19082641601562 -21.0625057220459 29.19082641601562 -21.0625057220459 L 46.30571746826172 -12.015625 C 46.30571746826172 -12.015625 48.17740631103516 -10.77734565734863 49.20307540893555 -9.125974655151367 C 50.2287483215332 -7.474615097045898 50.40840530395508 -5.410155296325684 50.40840530395508 -5.410155296325684 L 47.16933822631836 -5.410155296325684 C 47.16933822631836 -5.410155296325684 47.00624847412109 -6.818354606628418 46.30571746826172 -7.891605377197266 C 45.60519790649414 -8.964845657348633 44.36724853515625 -9.703125 44.36724853515625 -9.703125 L 27.60027694702148 -18.5312557220459 C 27.60027694702148 -18.5312557220459 26.26240730285645 -19.0625057220459 24.96594619750977 -19.0625057220459 C 23.66948699951172 -19.0625057220459 22.4144458770752 -18.5312557220459 22.4144458770752 -18.5312557220459 L 10.66763687133789 -12.3750057220459 L 10.66763687133789 -15.984375 L 8.221755981445312 -15.984375 L 8.221755981445312 -11.0683650970459 C 8.221755981445312 -11.0683650970459 6.067897796630859 -10.134765625 4.537418365478516 -8.935544967651367 C 3.006935119628906 -7.736325263977051 2.735626220703125 -5.4873046875 2.735626220703125 -5.4873046875 C 2.735626220703125 -5.4873046875 2.522315979003906 9.573245048522949 3.211967468261719 13.64257431030273 C 3.743175506591797 15.43554496765137 5.6278076171875 16.25805473327637 10.87887573242188 19.2470645904541 C 16.12994766235352 22.236083984375 23.14468574523926 25.19472503662109 24.21623611450195 25.59863471984863 C 26.19820213317871 26.345703125 27.88193702697754 25.328125 27.88193702697754 25.328125 C 27.88193702697754 25.328125 26.37423706054688 24.234375 25.24760627746582 22.484375 C 24.1209774017334 20.734375 23.82274627685547 18.421875 23.82274627685547 18.421875 L 23.72333717346191 4.843745231628418 C 23.72333526611328 4.84374475479126 25.04878234863281 4.703124523162842 26.52335739135742 5.062495231628418 C 27.99791717529297 5.421875 29.27366638183594 6.296875 29.27366638183594 6.296875 L 29.30680656433105 -5.890625 C 29.30680656433105 -5.890625 29.43105697631836 -7.363285064697266 30.71923637390137 -8.367184638977051 C 32.00740814208984 -9.371095657348633 33.85061645507812 -9.423824310302734 33.85061645507812 -9.423824310302734 C 33.85061645507812 -9.423824310302734 35.81393432617188 -9.291994094848633 36.82252502441406 -8.367184638977051 C 37.83111572265625 -7.442384719848633 38.33437728881836 -7.015625 38.44620513916016 -5.410155296325684 C 38.55803680419922 -3.804684638977051 38.44620513916016 -1.871094703674316 38.44620513916016 -1.871094703674316 C 38.44620513916016 -1.871094703674316 39.02194595336914 -2.085934638977051 39.80272674560547 -2.085934638977051 C 40.58349609375 -2.085934638977051 41.5485954284668 -1.871094703674316 41.5485954284668 -1.871094703674316 C 41.5485954284668 -1.871094703674316 41.99023818969727 -1.621094703674316 42.30244445800781 -1.416014671325684 C 42.61464691162109 -1.210934638977051 42.79741668701172 -1.050785064697266 42.79741668701172 -1.050785064697266 C 42.79741668701172 -1.050785064697266 43.55126571655273 -1.719724655151367 44.84357452392578 -1.984375 C 46.13589859008789 -2.249024391174316 47.16933822631836 -1.871094703674316 47.16933822631836 -1.871094703674316 L 47.16933822631836 -5.410155296325684 L 50.40840530395508 -5.410155296325684 L 50.40840530395508 8.667964935302734 L 47.16933822631836 8.667964935302734 L 47.16933822631836 1.813475131988525 C 47.16933441162109 1.813475131988525 46.84624481201172 0.7773585319519043 45.72583770751953 0.7978549003601074 C 44.60541534423828 0.8183550834655762 44.43352508544922 1.915034770965576 44.43352508544922 1.915034770965576 L 44.43352508544922 9.857424736022949 L 41.18201446533203 9.857424736022949 L 41.18201446533203 1.915034770965576 C 41.18201446533203 1.915034770965576 40.98736572265625 0.7568416595458984 39.80272674560547 0.7978549003601074 C 38.61809539794922 0.838864803314209 38.44620513916016 1.915034770965576 38.44620513916016 1.915034770965576 L 38.42549514770508 11.15722465515137 L 35.25890731811523 11.15722465515137 L 35.08701705932617 -5.890625 C 35.08701705932617 -5.890625 34.53146743774414 -6.507815361022949 33.85061645507812 -6.507815361022949 C 33.16976928710938 -6.507815361022949 32.76125717163086 -6.069334983825684 32.593505859375 -5.779294967651367 C 32.42575836181641 -5.489254951477051 32.43818664550781 13.74999523162842 32.43818664550781 13.74999523162842 L 29.24052619934082 13.74999523162842 C 29.24052619934082 13.74999523162842 29.52011680603027 11.33935546875 28.95886611938477 10.15624523162842 C 28.39762687683105 8.97314453125 26.98725700378418 8.343745231628418 26.98725700378418 8.343745231628418 L 27.02660751342773 18.88574600219727 C 27.02660751342773 18.88574600219727 27.76763725280762 20.52803421020508 29.10176658630371 22.23632431030273 C 29.54122734069824 22.80598449707031 30.14523696899414 23.08109474182129 30.95118713378906 23.6064453125 C 33.1961669921875 25.06982612609863 35.83464813232422 24.5312442779541 35.83464813232422 24.5312442779541 C 35.83464813232422 24.5312442779541 31.94527626037598 26.984375 29.10176658630371 28.0624942779541 C 26.25825119018555 29.14062690734863 26.42082405090332 28.99413681030273 24.53931617736816 28.9941349029541 C 22.65779685974121 28.9941349029541 21.01858711242676 28.18945503234863 21.01858711242676 28.18945503234863 L 10.87887573242188 22.859375 C 10.87887573242188 22.859375 4.088005065917969 19.30078506469727 3.483264923095703 18.86425399780273 C 2.381484985351562 18.22753524780273 0.9098358154296875 16.75460433959961 -0.07267379760742188 14.50390434265137 C -0.7126121520996094 13.22949504852295 -0.4640922546386719 10.94824504852295 -0.4640922546386719 10.94824504852295 L -0.4371719360351562 -5.4873046875 C -0.4371719360351562 -5.4873046875 -0.3729629516601562 -7.900395393371582 1.134735107421875 -9.830074310302734 C 2.642436981201172 -11.759765625 5.032386779785156 -12.75488471984863 5.032386779785156 -12.75488471984863 L 5.032386779785156 -17.609375 C 5.032386779785156 -17.609375 5.176845550537109 -18.19580459594727 5.564647674560547 -18.515625 C 5.952438354492188 -18.8354549407959 6.583587646484375 -18.88867568969727 6.583587646484375 -18.88867568969727 L 12.39899826049805 -18.88867568969727 C 12.39899826049805 -18.88867568969727 13.08865737915039 -18.7417049407959 13.45107650756836 -18.359375 C 13.81350708007812 -17.97705459594727 13.84871673583984 -17.359375 13.84871673583984 -17.359375 L 20.75763702392578 -21.0625057220459 C 20.75763702392578 -21.0625057220459 22.85764694213867 -21.921875 24.96594619750977 -21.921875 Z" stroke="none" fill="#7ccc2b"/>
  </g>
</svg>